<mxfile host="Electron" modified="2024-03-09T15:09:54.394Z" agent="Mozilla/5.0 (Windows NT 10.0; Win64; x64) AppleWebKit/537.36 (KHTML, like Gecko) draw.io/23.0.2 Chrome/120.0.6099.109 Electron/28.1.0 Safari/537.36" etag="56Ik8m00ohqHACxRYaB1" version="23.0.2" type="device">
  <diagram id="prtHgNgQTEPvFCAcTncT" name="Page-1">
    <mxGraphModel dx="3000" dy="1911" grid="1" gridSize="10" guides="1" tooltips="1" connect="1" arrows="1" fold="1" page="1" pageScale="1" pageWidth="827" pageHeight="1169" math="0" shadow="0">
      <root>
        <mxCell id="0" />
        <mxCell id="1" parent="0" />
        <mxCell id="xrNgwbNOHFZTOnFAcOC_-7" value="" style="edgeStyle=orthogonalEdgeStyle;rounded=0;orthogonalLoop=1;jettySize=auto;html=1;" edge="1" parent="1" source="xrNgwbNOHFZTOnFAcOC_-1" target="xrNgwbNOHFZTOnFAcOC_-6">
          <mxGeometry relative="1" as="geometry" />
        </mxCell>
        <mxCell id="xrNgwbNOHFZTOnFAcOC_-1" value="/start" style="rounded=0;whiteSpace=wrap;html=1;fillColor=#d5e8d4;strokeColor=#82b366;" vertex="1" parent="1">
          <mxGeometry x="354" y="20" width="120" height="60" as="geometry" />
        </mxCell>
        <mxCell id="xrNgwbNOHFZTOnFAcOC_-2" value="стартовый текст + фото" style="rounded=0;whiteSpace=wrap;html=1;fillColor=#dae8fc;strokeColor=#6c8ebf;" vertex="1" parent="1">
          <mxGeometry x="540" y="240" width="120" height="60" as="geometry" />
        </mxCell>
        <mxCell id="xrNgwbNOHFZTOnFAcOC_-5" value="стартовый текст + фото" style="rounded=0;whiteSpace=wrap;html=1;fillColor=#dae8fc;strokeColor=#6c8ebf;" vertex="1" parent="1">
          <mxGeometry x="190" y="240" width="120" height="60" as="geometry" />
        </mxCell>
        <mxCell id="xrNgwbNOHFZTOnFAcOC_-8" style="edgeStyle=orthogonalEdgeStyle;rounded=0;orthogonalLoop=1;jettySize=auto;html=1;" edge="1" parent="1" source="xrNgwbNOHFZTOnFAcOC_-6" target="xrNgwbNOHFZTOnFAcOC_-5">
          <mxGeometry relative="1" as="geometry" />
        </mxCell>
        <mxCell id="xrNgwbNOHFZTOnFAcOC_-9" style="edgeStyle=orthogonalEdgeStyle;rounded=0;orthogonalLoop=1;jettySize=auto;html=1;" edge="1" parent="1" source="xrNgwbNOHFZTOnFAcOC_-6" target="xrNgwbNOHFZTOnFAcOC_-2">
          <mxGeometry relative="1" as="geometry" />
        </mxCell>
        <mxCell id="xrNgwbNOHFZTOnFAcOC_-6" value="" style="rhombus;whiteSpace=wrap;html=1;fillColor=#f5f5f5;fontColor=#333333;strokeColor=#666666;" vertex="1" parent="1">
          <mxGeometry x="374" y="130" width="80" height="80" as="geometry" />
        </mxCell>
        <mxCell id="xrNgwbNOHFZTOnFAcOC_-10" value="есть подписка" style="text;html=1;align=center;verticalAlign=middle;resizable=0;points=[];autosize=1;strokeColor=none;fillColor=none;" vertex="1" parent="1">
          <mxGeometry x="450" y="138" width="100" height="30" as="geometry" />
        </mxCell>
        <mxCell id="xrNgwbNOHFZTOnFAcOC_-11" value="нет подписки" style="text;html=1;align=center;verticalAlign=middle;resizable=0;points=[];autosize=1;strokeColor=none;fillColor=none;" vertex="1" parent="1">
          <mxGeometry x="269" y="138" width="100" height="30" as="geometry" />
        </mxCell>
        <mxCell id="xrNgwbNOHFZTOnFAcOC_-20" style="edgeStyle=orthogonalEdgeStyle;rounded=0;orthogonalLoop=1;jettySize=auto;html=1;entryX=0.5;entryY=0;entryDx=0;entryDy=0;" edge="1" parent="1" source="xrNgwbNOHFZTOnFAcOC_-12" target="xrNgwbNOHFZTOnFAcOC_-17">
          <mxGeometry relative="1" as="geometry">
            <Array as="points">
              <mxPoint x="130" y="345" />
            </Array>
          </mxGeometry>
        </mxCell>
        <mxCell id="xrNgwbNOHFZTOnFAcOC_-12" value="1 месяц" style="rounded=0;whiteSpace=wrap;html=1;fillColor=#dae8fc;strokeColor=#6c8ebf;" vertex="1" parent="1">
          <mxGeometry x="190" y="330" width="120" height="30" as="geometry" />
        </mxCell>
        <mxCell id="xrNgwbNOHFZTOnFAcOC_-19" style="edgeStyle=orthogonalEdgeStyle;rounded=0;orthogonalLoop=1;jettySize=auto;html=1;" edge="1" parent="1" source="xrNgwbNOHFZTOnFAcOC_-13" target="xrNgwbNOHFZTOnFAcOC_-17">
          <mxGeometry relative="1" as="geometry">
            <Array as="points">
              <mxPoint x="130" y="315" />
            </Array>
          </mxGeometry>
        </mxCell>
        <mxCell id="xrNgwbNOHFZTOnFAcOC_-13" value="1 неделя" style="rounded=0;whiteSpace=wrap;html=1;fillColor=#dae8fc;strokeColor=#6c8ebf;" vertex="1" parent="1">
          <mxGeometry x="190" y="300" width="120" height="30" as="geometry" />
        </mxCell>
        <mxCell id="xrNgwbNOHFZTOnFAcOC_-21" style="edgeStyle=orthogonalEdgeStyle;rounded=0;orthogonalLoop=1;jettySize=auto;html=1;entryX=0.5;entryY=0;entryDx=0;entryDy=0;" edge="1" parent="1" source="xrNgwbNOHFZTOnFAcOC_-14" target="xrNgwbNOHFZTOnFAcOC_-17">
          <mxGeometry relative="1" as="geometry">
            <Array as="points">
              <mxPoint x="130" y="380" />
            </Array>
          </mxGeometry>
        </mxCell>
        <mxCell id="xrNgwbNOHFZTOnFAcOC_-14" value="6 месяцев" style="rounded=0;whiteSpace=wrap;html=1;fillColor=#dae8fc;strokeColor=#6c8ebf;" vertex="1" parent="1">
          <mxGeometry x="190" y="360" width="120" height="30" as="geometry" />
        </mxCell>
        <mxCell id="xrNgwbNOHFZTOnFAcOC_-22" style="edgeStyle=orthogonalEdgeStyle;rounded=0;orthogonalLoop=1;jettySize=auto;html=1;entryX=0.5;entryY=0;entryDx=0;entryDy=0;" edge="1" parent="1" source="xrNgwbNOHFZTOnFAcOC_-16" target="xrNgwbNOHFZTOnFAcOC_-18">
          <mxGeometry relative="1" as="geometry">
            <Array as="points">
              <mxPoint x="370" y="405" />
            </Array>
          </mxGeometry>
        </mxCell>
        <mxCell id="xrNgwbNOHFZTOnFAcOC_-16" value="поддержка" style="rounded=0;whiteSpace=wrap;html=1;fillColor=#dae8fc;strokeColor=#6c8ebf;" vertex="1" parent="1">
          <mxGeometry x="190" y="390" width="120" height="30" as="geometry" />
        </mxCell>
        <mxCell id="xrNgwbNOHFZTOnFAcOC_-24" value="" style="edgeStyle=orthogonalEdgeStyle;rounded=0;orthogonalLoop=1;jettySize=auto;html=1;" edge="1" parent="1" source="xrNgwbNOHFZTOnFAcOC_-17">
          <mxGeometry relative="1" as="geometry">
            <mxPoint x="130" y="600" as="targetPoint" />
          </mxGeometry>
        </mxCell>
        <mxCell id="xrNgwbNOHFZTOnFAcOC_-17" value="кнопки на оплату" style="rounded=0;whiteSpace=wrap;html=1;fillColor=#d5e8d4;strokeColor=#82b366;" vertex="1" parent="1">
          <mxGeometry x="70" y="500" width="120" height="60" as="geometry" />
        </mxCell>
        <mxCell id="xrNgwbNOHFZTOnFAcOC_-26" value="" style="edgeStyle=orthogonalEdgeStyle;rounded=0;orthogonalLoop=1;jettySize=auto;html=1;" edge="1" parent="1" source="xrNgwbNOHFZTOnFAcOC_-18">
          <mxGeometry relative="1" as="geometry">
            <mxPoint x="370" y="600" as="targetPoint" />
          </mxGeometry>
        </mxCell>
        <mxCell id="xrNgwbNOHFZTOnFAcOC_-18" value="поддержка" style="rounded=0;whiteSpace=wrap;html=1;fillColor=#d5e8d4;strokeColor=#82b366;" vertex="1" parent="1">
          <mxGeometry x="310" y="500" width="120" height="60" as="geometry" />
        </mxCell>
        <mxCell id="xrNgwbNOHFZTOnFAcOC_-35" style="edgeStyle=orthogonalEdgeStyle;rounded=0;orthogonalLoop=1;jettySize=auto;html=1;" edge="1" parent="1" source="xrNgwbNOHFZTOnFAcOC_-27" target="xrNgwbNOHFZTOnFAcOC_-28">
          <mxGeometry relative="1" as="geometry" />
        </mxCell>
        <mxCell id="xrNgwbNOHFZTOnFAcOC_-27" value="/help" style="rounded=0;whiteSpace=wrap;html=1;fillColor=#d5e8d4;strokeColor=#82b366;" vertex="1" parent="1">
          <mxGeometry x="880" y="20" width="120" height="60" as="geometry" />
        </mxCell>
        <mxCell id="xrNgwbNOHFZTOnFAcOC_-28" value="текст" style="rounded=0;whiteSpace=wrap;html=1;fillColor=#dae8fc;strokeColor=#6c8ebf;" vertex="1" parent="1">
          <mxGeometry x="880" y="130" width="120" height="60" as="geometry" />
        </mxCell>
        <mxCell id="xrNgwbNOHFZTOnFAcOC_-29" value="что ей написать?" style="rounded=0;whiteSpace=wrap;html=1;fillColor=#dae8fc;strokeColor=#6c8ebf;" vertex="1" parent="1">
          <mxGeometry x="880" y="190" width="120" height="30" as="geometry" />
        </mxCell>
        <mxCell id="xrNgwbNOHFZTOnFAcOC_-33" style="edgeStyle=orthogonalEdgeStyle;rounded=0;orthogonalLoop=1;jettySize=auto;html=1;entryX=0.5;entryY=0;entryDx=0;entryDy=0;" edge="1" parent="1" source="xrNgwbNOHFZTOnFAcOC_-30" target="xrNgwbNOHFZTOnFAcOC_-31">
          <mxGeometry relative="1" as="geometry" />
        </mxCell>
        <mxCell id="xrNgwbNOHFZTOnFAcOC_-30" value="что ей ответить?" style="rounded=0;whiteSpace=wrap;html=1;fillColor=#dae8fc;strokeColor=#6c8ebf;" vertex="1" parent="1">
          <mxGeometry x="880" y="220" width="120" height="30" as="geometry" />
        </mxCell>
        <mxCell id="xrNgwbNOHFZTOnFAcOC_-31" value="сохраняет выбор" style="rounded=0;whiteSpace=wrap;html=1;fillColor=#d5e8d4;strokeColor=#82b366;" vertex="1" parent="1">
          <mxGeometry x="880" y="310" width="120" height="60" as="geometry" />
        </mxCell>
        <mxCell id="xrNgwbNOHFZTOnFAcOC_-36" value="" style="edgeStyle=orthogonalEdgeStyle;rounded=0;orthogonalLoop=1;jettySize=auto;html=1;" edge="1" parent="1" source="xrNgwbNOHFZTOnFAcOC_-37" target="xrNgwbNOHFZTOnFAcOC_-42">
          <mxGeometry relative="1" as="geometry" />
        </mxCell>
        <mxCell id="xrNgwbNOHFZTOnFAcOC_-37" value="/subscription" style="rounded=0;whiteSpace=wrap;html=1;fillColor=#d5e8d4;strokeColor=#82b366;" vertex="1" parent="1">
          <mxGeometry x="1374" y="20" width="120" height="60" as="geometry" />
        </mxCell>
        <mxCell id="xrNgwbNOHFZTOnFAcOC_-38" value="информация о поддержке" style="rounded=0;whiteSpace=wrap;html=1;fillColor=#dae8fc;strokeColor=#6c8ebf;" vertex="1" parent="1">
          <mxGeometry x="1560" y="240" width="120" height="60" as="geometry" />
        </mxCell>
        <mxCell id="xrNgwbNOHFZTOnFAcOC_-39" value="информация о поддержке" style="rounded=0;whiteSpace=wrap;html=1;fillColor=#dae8fc;strokeColor=#6c8ebf;" vertex="1" parent="1">
          <mxGeometry x="1210" y="240" width="120" height="60" as="geometry" />
        </mxCell>
        <mxCell id="xrNgwbNOHFZTOnFAcOC_-40" style="edgeStyle=orthogonalEdgeStyle;rounded=0;orthogonalLoop=1;jettySize=auto;html=1;" edge="1" parent="1" source="xrNgwbNOHFZTOnFAcOC_-42" target="xrNgwbNOHFZTOnFAcOC_-39">
          <mxGeometry relative="1" as="geometry" />
        </mxCell>
        <mxCell id="xrNgwbNOHFZTOnFAcOC_-41" style="edgeStyle=orthogonalEdgeStyle;rounded=0;orthogonalLoop=1;jettySize=auto;html=1;" edge="1" parent="1" source="xrNgwbNOHFZTOnFAcOC_-42" target="xrNgwbNOHFZTOnFAcOC_-38">
          <mxGeometry relative="1" as="geometry" />
        </mxCell>
        <mxCell id="xrNgwbNOHFZTOnFAcOC_-42" value="" style="rhombus;whiteSpace=wrap;html=1;fillColor=#f5f5f5;strokeColor=#666666;fontColor=#333333;" vertex="1" parent="1">
          <mxGeometry x="1394" y="130" width="80" height="80" as="geometry" />
        </mxCell>
        <mxCell id="xrNgwbNOHFZTOnFAcOC_-43" value="есть подписка" style="text;html=1;align=center;verticalAlign=middle;resizable=0;points=[];autosize=1;strokeColor=none;fillColor=none;" vertex="1" parent="1">
          <mxGeometry x="1470" y="138" width="100" height="30" as="geometry" />
        </mxCell>
        <mxCell id="xrNgwbNOHFZTOnFAcOC_-44" value="нет подписки" style="text;html=1;align=center;verticalAlign=middle;resizable=0;points=[];autosize=1;strokeColor=none;fillColor=none;" vertex="1" parent="1">
          <mxGeometry x="1289" y="138" width="100" height="30" as="geometry" />
        </mxCell>
        <mxCell id="xrNgwbNOHFZTOnFAcOC_-45" style="edgeStyle=orthogonalEdgeStyle;rounded=0;orthogonalLoop=1;jettySize=auto;html=1;entryX=0.5;entryY=0;entryDx=0;entryDy=0;" edge="1" parent="1" source="xrNgwbNOHFZTOnFAcOC_-46" target="xrNgwbNOHFZTOnFAcOC_-54">
          <mxGeometry relative="1" as="geometry">
            <Array as="points">
              <mxPoint x="1150" y="345" />
            </Array>
          </mxGeometry>
        </mxCell>
        <mxCell id="xrNgwbNOHFZTOnFAcOC_-46" value="1 месяц" style="rounded=0;whiteSpace=wrap;html=1;fillColor=#dae8fc;strokeColor=#6c8ebf;" vertex="1" parent="1">
          <mxGeometry x="1210" y="330" width="120" height="30" as="geometry" />
        </mxCell>
        <mxCell id="xrNgwbNOHFZTOnFAcOC_-47" style="edgeStyle=orthogonalEdgeStyle;rounded=0;orthogonalLoop=1;jettySize=auto;html=1;" edge="1" parent="1" source="xrNgwbNOHFZTOnFAcOC_-48" target="xrNgwbNOHFZTOnFAcOC_-54">
          <mxGeometry relative="1" as="geometry">
            <Array as="points">
              <mxPoint x="1150" y="315" />
            </Array>
          </mxGeometry>
        </mxCell>
        <mxCell id="xrNgwbNOHFZTOnFAcOC_-48" value="1 неделя" style="rounded=0;whiteSpace=wrap;html=1;fillColor=#dae8fc;strokeColor=#6c8ebf;" vertex="1" parent="1">
          <mxGeometry x="1210" y="300" width="120" height="30" as="geometry" />
        </mxCell>
        <mxCell id="xrNgwbNOHFZTOnFAcOC_-49" style="edgeStyle=orthogonalEdgeStyle;rounded=0;orthogonalLoop=1;jettySize=auto;html=1;entryX=0.5;entryY=0;entryDx=0;entryDy=0;" edge="1" parent="1" source="xrNgwbNOHFZTOnFAcOC_-50" target="xrNgwbNOHFZTOnFAcOC_-54">
          <mxGeometry relative="1" as="geometry">
            <Array as="points">
              <mxPoint x="1150" y="380" />
            </Array>
          </mxGeometry>
        </mxCell>
        <mxCell id="xrNgwbNOHFZTOnFAcOC_-50" value="6 месяцев" style="rounded=0;whiteSpace=wrap;html=1;fillColor=#dae8fc;strokeColor=#6c8ebf;" vertex="1" parent="1">
          <mxGeometry x="1210" y="360" width="120" height="30" as="geometry" />
        </mxCell>
        <mxCell id="xrNgwbNOHFZTOnFAcOC_-51" style="edgeStyle=orthogonalEdgeStyle;rounded=0;orthogonalLoop=1;jettySize=auto;html=1;entryX=0.5;entryY=0;entryDx=0;entryDy=0;" edge="1" parent="1" source="xrNgwbNOHFZTOnFAcOC_-52" target="xrNgwbNOHFZTOnFAcOC_-56">
          <mxGeometry relative="1" as="geometry">
            <Array as="points">
              <mxPoint x="1390" y="405" />
            </Array>
          </mxGeometry>
        </mxCell>
        <mxCell id="xrNgwbNOHFZTOnFAcOC_-52" value="поддержка" style="rounded=0;whiteSpace=wrap;html=1;fillColor=#dae8fc;strokeColor=#6c8ebf;" vertex="1" parent="1">
          <mxGeometry x="1210" y="390" width="120" height="30" as="geometry" />
        </mxCell>
        <mxCell id="xrNgwbNOHFZTOnFAcOC_-53" value="" style="edgeStyle=orthogonalEdgeStyle;rounded=0;orthogonalLoop=1;jettySize=auto;html=1;" edge="1" parent="1" source="xrNgwbNOHFZTOnFAcOC_-54">
          <mxGeometry relative="1" as="geometry">
            <mxPoint x="1150" y="600" as="targetPoint" />
          </mxGeometry>
        </mxCell>
        <mxCell id="xrNgwbNOHFZTOnFAcOC_-54" value="кнопки на оплату" style="rounded=0;whiteSpace=wrap;html=1;fillColor=#d5e8d4;strokeColor=#82b366;" vertex="1" parent="1">
          <mxGeometry x="1090" y="500" width="120" height="60" as="geometry" />
        </mxCell>
        <mxCell id="xrNgwbNOHFZTOnFAcOC_-55" value="" style="edgeStyle=orthogonalEdgeStyle;rounded=0;orthogonalLoop=1;jettySize=auto;html=1;" edge="1" parent="1" source="xrNgwbNOHFZTOnFAcOC_-56">
          <mxGeometry relative="1" as="geometry">
            <mxPoint x="1390" y="600" as="targetPoint" />
          </mxGeometry>
        </mxCell>
        <mxCell id="xrNgwbNOHFZTOnFAcOC_-56" value="поддержка" style="rounded=0;whiteSpace=wrap;html=1;fillColor=#d5e8d4;strokeColor=#82b366;" vertex="1" parent="1">
          <mxGeometry x="1330" y="500" width="120" height="60" as="geometry" />
        </mxCell>
        <mxCell id="xrNgwbNOHFZTOnFAcOC_-62" value="" style="edgeStyle=orthogonalEdgeStyle;rounded=0;orthogonalLoop=1;jettySize=auto;html=1;" edge="1" parent="1" source="xrNgwbNOHFZTOnFAcOC_-59" target="xrNgwbNOHFZTOnFAcOC_-61">
          <mxGeometry relative="1" as="geometry" />
        </mxCell>
        <mxCell id="xrNgwbNOHFZTOnFAcOC_-59" value="скриншот" style="rounded=0;whiteSpace=wrap;html=1;fillColor=#d5e8d4;strokeColor=#82b366;" vertex="1" parent="1">
          <mxGeometry x="2020" y="40" width="120" height="60" as="geometry" />
        </mxCell>
        <mxCell id="xrNgwbNOHFZTOnFAcOC_-65" style="edgeStyle=orthogonalEdgeStyle;rounded=0;orthogonalLoop=1;jettySize=auto;html=1;" edge="1" parent="1" source="xrNgwbNOHFZTOnFAcOC_-61" target="xrNgwbNOHFZTOnFAcOC_-63">
          <mxGeometry relative="1" as="geometry" />
        </mxCell>
        <mxCell id="xrNgwbNOHFZTOnFAcOC_-66" style="edgeStyle=orthogonalEdgeStyle;rounded=0;orthogonalLoop=1;jettySize=auto;html=1;entryX=0.5;entryY=0;entryDx=0;entryDy=0;" edge="1" parent="1" source="xrNgwbNOHFZTOnFAcOC_-61" target="xrNgwbNOHFZTOnFAcOC_-64">
          <mxGeometry relative="1" as="geometry" />
        </mxCell>
        <mxCell id="xrNgwbNOHFZTOnFAcOC_-61" value="" style="rhombus;whiteSpace=wrap;html=1;fillColor=#f5f5f5;strokeColor=#666666;fontColor=#333333;" vertex="1" parent="1">
          <mxGeometry x="2040" y="140" width="80" height="80" as="geometry" />
        </mxCell>
        <mxCell id="xrNgwbNOHFZTOnFAcOC_-80" value="" style="edgeStyle=orthogonalEdgeStyle;rounded=0;orthogonalLoop=1;jettySize=auto;html=1;" edge="1" parent="1" source="xrNgwbNOHFZTOnFAcOC_-63" target="xrNgwbNOHFZTOnFAcOC_-69">
          <mxGeometry relative="1" as="geometry" />
        </mxCell>
        <mxCell id="xrNgwbNOHFZTOnFAcOC_-63" value="информация о том, что находиться на фото" style="rounded=0;whiteSpace=wrap;html=1;fillColor=#dae8fc;strokeColor=#6c8ebf;" vertex="1" parent="1">
          <mxGeometry x="1870" y="240" width="120" height="60" as="geometry" />
        </mxCell>
        <mxCell id="xrNgwbNOHFZTOnFAcOC_-78" value="" style="edgeStyle=orthogonalEdgeStyle;rounded=0;orthogonalLoop=1;jettySize=auto;html=1;" edge="1" parent="1" source="xrNgwbNOHFZTOnFAcOC_-64" target="xrNgwbNOHFZTOnFAcOC_-76">
          <mxGeometry relative="1" as="geometry" />
        </mxCell>
        <mxCell id="xrNgwbNOHFZTOnFAcOC_-64" value="распаршенный текст" style="rounded=0;whiteSpace=wrap;html=1;fillColor=#dae8fc;strokeColor=#6c8ebf;" vertex="1" parent="1">
          <mxGeometry x="2180" y="240" width="120" height="60" as="geometry" />
        </mxCell>
        <mxCell id="xrNgwbNOHFZTOnFAcOC_-67" value="что ей написать" style="text;html=1;align=center;verticalAlign=middle;resizable=0;points=[];autosize=1;strokeColor=none;fillColor=none;" vertex="1" parent="1">
          <mxGeometry x="1930" y="155" width="110" height="30" as="geometry" />
        </mxCell>
        <mxCell id="xrNgwbNOHFZTOnFAcOC_-68" value="что ей ответить" style="text;html=1;align=center;verticalAlign=middle;resizable=0;points=[];autosize=1;strokeColor=none;fillColor=none;" vertex="1" parent="1">
          <mxGeometry x="2130" y="155" width="110" height="30" as="geometry" />
        </mxCell>
        <mxCell id="xrNgwbNOHFZTOnFAcOC_-81" value="" style="edgeStyle=orthogonalEdgeStyle;rounded=0;orthogonalLoop=1;jettySize=auto;html=1;" edge="1" parent="1" source="xrNgwbNOHFZTOnFAcOC_-69" target="xrNgwbNOHFZTOnFAcOC_-70">
          <mxGeometry relative="1" as="geometry" />
        </mxCell>
        <mxCell id="xrNgwbNOHFZTOnFAcOC_-69" value="отправка фото в ИИ" style="rounded=1;whiteSpace=wrap;html=1;fillColor=#fff2cc;strokeColor=#d6b656;" vertex="1" parent="1">
          <mxGeometry x="1870" y="370" width="120" height="60" as="geometry" />
        </mxCell>
        <mxCell id="xrNgwbNOHFZTOnFAcOC_-70" value="ответ ИИ" style="rounded=0;whiteSpace=wrap;html=1;fillColor=#dae8fc;strokeColor=#6c8ebf;" vertex="1" parent="1">
          <mxGeometry x="1870" y="490" width="120" height="60" as="geometry" />
        </mxCell>
        <mxCell id="xrNgwbNOHFZTOnFAcOC_-71" value="отправляет на поддержку" style="rounded=1;whiteSpace=wrap;html=1;fillColor=#dae8fc;strokeColor=#6c8ebf;" vertex="1" parent="1">
          <mxGeometry x="1330" y="600" width="120" height="60" as="geometry" />
        </mxCell>
        <mxCell id="xrNgwbNOHFZTOnFAcOC_-72" value="отправляет оплату" style="rounded=1;whiteSpace=wrap;html=1;fillColor=#dae8fc;strokeColor=#6c8ebf;" vertex="1" parent="1">
          <mxGeometry x="1090" y="600" width="120" height="60" as="geometry" />
        </mxCell>
        <mxCell id="xrNgwbNOHFZTOnFAcOC_-73" value="отправляет оплату" style="rounded=1;whiteSpace=wrap;html=1;fillColor=#dae8fc;strokeColor=#6c8ebf;" vertex="1" parent="1">
          <mxGeometry x="70" y="600" width="120" height="60" as="geometry" />
        </mxCell>
        <mxCell id="xrNgwbNOHFZTOnFAcOC_-75" value="отправляет на поддержку" style="rounded=1;whiteSpace=wrap;html=1;fillColor=#dae8fc;strokeColor=#6c8ebf;" vertex="1" parent="1">
          <mxGeometry x="310" y="600" width="120" height="60" as="geometry" />
        </mxCell>
        <mxCell id="xrNgwbNOHFZTOnFAcOC_-79" value="" style="edgeStyle=orthogonalEdgeStyle;rounded=0;orthogonalLoop=1;jettySize=auto;html=1;" edge="1" parent="1" source="xrNgwbNOHFZTOnFAcOC_-76" target="xrNgwbNOHFZTOnFAcOC_-77">
          <mxGeometry relative="1" as="geometry" />
        </mxCell>
        <mxCell id="xrNgwbNOHFZTOnFAcOC_-76" value="отправка текста в ИИ" style="rounded=1;whiteSpace=wrap;html=1;fillColor=#fff2cc;strokeColor=#d6b656;" vertex="1" parent="1">
          <mxGeometry x="2180" y="370" width="120" height="60" as="geometry" />
        </mxCell>
        <mxCell id="xrNgwbNOHFZTOnFAcOC_-77" value="ответ ИИ" style="rounded=0;whiteSpace=wrap;html=1;fillColor=#dae8fc;strokeColor=#6c8ebf;" vertex="1" parent="1">
          <mxGeometry x="2180" y="500" width="120" height="60" as="geometry" />
        </mxCell>
      </root>
    </mxGraphModel>
  </diagram>
</mxfile>
